<svg xmlns="http://www.w3.org/2000/svg" width="96.2" height="38.908" viewBox="0 0 96.2 38.908"><defs><style>.a,.c{fill:#083860;}.b{fill:#fff;}.c{font-size:12px;font-family:HelveticaNeue-CondensedBlack, Helvetica Neue;font-weight:800;letter-spacing:0.052em;}.d{fill:#aa8227;font-size:9px;font-family:HelveticaNeue-CondensedBold, Helvetica Neue;font-weight:700;letter-spacing:0.139em;}.e,.f{fill:none;}.f{stroke:#083860;stroke-linecap:round;}.g{fill:#f5eded;}</style></defs><g transform="translate(-188.8 109.256)"><path class="a" d="M322.888,207.019l-.725-1.931s-.966,1.056-1.964-.355c-.314-.445-1.812-4.143-1.812-4.143l-.55-2.268s-2.041-2.026,2.362-2.843,5.49,2.283,5.49,2.283v1.012s4.708,1.38,2.736,3.8a2.024,2.024,0,0,0-.354-1.987,6.428,6.428,0,0,0-2.382-1.325s-.062.17,1.684,1.325a1.894,1.894,0,0,1,.47,2.821,2.129,2.129,0,0,0-.876-2.386,5.033,5.033,0,0,0-1.7-.837c.569.886,1.433.345,2.11,1.784a1.742,1.742,0,0,1-.406,2.222,3.481,3.481,0,0,0-.415-2.222,5.526,5.526,0,0,0-2.061-1.382s1.762.99,2.061,2.348c.077.351.13,2.651.13,2.651l-1.88-.856.887,1.5a12.206,12.206,0,0,1,2.382,6.031c.443,6.327-1.519,11.862-1.519,17.24,0,0,.1-6.973-1.289-9.6S322,216.193,321,217.124a6.4,6.4,0,0,1,0-7.211l-13.152-4.324-.282-1.737-4.694-1.594-1.38-1.838,9.653,2.991Z" transform="translate(-103 -299.85)"/><path class="b" d="M262.262-63.793l7.767,1.946-.132.344-7.682.519Z" transform="matrix(0.934, -0.358, 0.358, 0.934, -7.159, 53.077)"/><text class="c" transform="translate(227 -88)"><tspan x="0" y="0">LE VERGER</tspan></text><text class="d" transform="translate(236 -78)"><tspan x="0" y="0">AVOCATS</tspan></text><line class="e" x2="9" transform="translate(213.5 -101.5)"/><path class="e" d="M214.027-105.044l2.395-4.212,1.755.407-2.785,3.8Z"/><g transform="translate(187.8 -85.753)"><path class="a" d="M176.8-76.81h7.82v.937s-.317,2-3.946,1.919-3.873-1.919-3.873-1.919Z" transform="translate(-175.803 76.568)"/></g><g transform="translate(204.22 -86.753)"><path class="a" d="M176.8-76.81h8.073v1s-.328,2.127-4.074,2.04-4-2.04-4-2.04Z" transform="translate(-177.803 77.859)"/></g><path class="f" d="M179.325-91.407a4.058,4.058,0,0,0,2.489,1.187c1.339,0,1.351-3.7,6.77-3.607s5.391,3.607,6.7,3.607a2.943,2.943,0,0,0,2.152-1.187" transform="translate(11.295 3.019)"/><path class="f" d="M0,6.121C-.027,4.292,0,0,0,0" transform="translate(199.502 -96.62)"/><path class="g" d="M219.862-92.82a10.786,10.786,0,0,1,2.133.973,1.629,1.629,0,0,1,.778,1.051,1.345,1.345,0,0,0-.518-1.353,12.063,12.063,0,0,0-2.6-1.157Z"/><path class="b" d="M202.628-96.669l-.238-2.09-.9-.206.262,2.049Z" transform="translate(2 0.961)"/></g></svg>